<svg width="130" height="231" xmlns="http://www.w3.org/2000/svg" xmlns:xlink="http://www.w3.org/1999/xlink" xml:space="preserve" overflow="hidden"><defs><clipPath id="clip0"><rect x="234" y="201" width="130" height="231"/></clipPath><clipPath id="clip1"><rect x="234" y="210" width="129" height="211"/></clipPath></defs><g clip-path="url(#clip0)" transform="translate(-234 -201)"><path d="M285.833 100.227 285.833 133.371 201.979 133.371 201.979 100.227 285.833 100.227ZM218.22 69.7346 263.958 69.7346 263.958 186.568C263.958 188.335 264.262 189.827 264.87 191.042 265.477 192.202 266.417 193.086 267.687 193.693 268.957 194.245 270.587 194.522 272.576 194.522 273.957 194.522 275.559 194.356 277.381 194.025 279.26 193.693 280.641 193.417 281.525 193.196L288.153 225.346C286.109 225.953 283.182 226.699 279.37 227.583 275.614 228.467 271.14 229.047 265.947 229.323 255.452 229.875 246.641 228.798 239.515 226.091 232.389 223.329 227.03 218.993 223.44 213.082 219.849 207.172 218.11 199.77 218.22 190.876L218.22 69.7346ZM364.447 229.82C350.636 229.82 338.815 227.086 328.983 221.617 319.15 216.093 311.61 208.415 306.362 198.582 301.114 188.694 298.49 177.232 298.49 164.195 298.49 151.159 301.114 139.724 306.362 129.891 311.61 120.003 319.15 112.325 328.983 106.856 338.815 101.332 350.636 98.5699 364.447 98.5699 378.257 98.5699 390.078 101.332 399.911 106.856 409.743 112.325 417.283 120.003 422.531 129.891 427.779 139.724 430.403 151.159 430.403 164.195 430.403 177.232 427.779 188.694 422.531 198.582 417.283 208.415 409.743 216.093 399.911 221.617 390.078 227.086 378.257 229.82 364.447 229.82ZM364.778 196.013C368.645 196.013 371.987 194.715 374.804 192.119 377.621 189.523 379.803 185.821 381.35 181.015 382.896 176.21 383.67 170.493 383.67 163.864 383.67 157.18 382.896 151.463 381.35 146.712 379.803 141.906 377.621 138.204 374.804 135.609 371.987 133.012 368.645 131.714 364.778 131.714 360.69 131.714 357.183 133.012 354.255 135.609 351.327 138.204 349.09 141.906 347.543 146.712 345.997 151.463 345.223 157.18 345.223 163.864 345.223 170.493 345.997 176.21 347.543 181.015 349.09 185.821 351.327 189.523 354.255 192.119 357.183 194.715 360.69 196.013 364.778 196.013Z" fill="#4EA8DE" transform="matrix(1.00255 0 0 1 234 152)"/><path d="M495.034 229.157C485.974 229.157 477.633 226.782 470.01 222.031 462.442 217.281 456.366 210.072 451.781 200.405 447.251 190.738 444.987 178.557 444.987 163.864 444.987 148.507 447.362 136.023 452.112 126.411 456.918 116.799 463.105 109.756 470.673 105.282 478.296 100.807 486.306 98.5699 494.702 98.5699 501 98.5699 506.524 99.6747 511.274 101.884 516.025 104.039 520.002 106.939 523.206 110.585 526.41 114.175 528.841 118.125 530.498 122.434L531.161 122.434 531.161 57.803 576.899 57.803 576.899 227.5 531.492 227.5 531.492 206.62 530.498 206.62C528.73 210.928 526.189 214.795 522.875 218.22 519.615 221.589 515.638 224.268 510.943 226.257 506.302 228.191 501 229.157 495.034 229.157ZM511.937 194.025C516.136 194.025 519.726 192.809 522.709 190.379 525.747 187.893 528.067 184.413 529.669 179.939 531.326 175.409 532.155 170.05 532.155 163.864 532.155 157.567 531.326 152.181 529.669 147.706 528.067 143.176 525.747 139.724 522.709 137.349 519.726 134.918 516.136 133.703 511.937 133.703 507.739 133.703 504.148 134.918 501.166 137.349 498.238 139.724 495.973 143.176 494.371 147.706 492.824 152.181 492.051 157.567 492.051 163.864 492.051 170.161 492.824 175.575 494.371 180.104 495.973 184.578 498.238 188.031 501.166 190.462 504.148 192.837 507.739 194.025 511.937 194.025ZM660.672 229.82C646.858 229.82 635.04 227.086 625.205 221.617 615.376 216.093 607.833 208.415 602.583 198.582 597.339 188.694 594.714 177.232 594.714 164.195 594.714 151.159 597.339 139.724 602.583 129.891 607.833 120.003 615.376 112.325 625.205 106.856 635.04 101.332 646.858 98.5699 660.672 98.5699 674.479 98.5699 686.303 101.332 696.133 106.856 705.968 112.325 713.51 120.003 718.754 129.891 724.004 139.724 726.629 151.159 726.629 164.195 726.629 177.232 724.004 188.694 718.754 198.582 713.51 208.415 705.968 216.093 696.133 221.617 686.303 227.086 674.479 229.82 660.672 229.82ZM661.004 196.013C664.872 196.013 668.208 194.715 671.026 192.119 673.843 189.523 676.025 185.821 677.577 181.015 679.122 176.21 679.893 170.493 679.893 163.864 679.893 157.18 679.122 151.463 677.577 146.712 676.025 141.906 673.843 138.204 671.026 135.609 668.208 133.012 664.872 131.714 661.004 131.714 656.915 131.714 653.409 133.012 650.481 135.609 647.553 138.204 645.312 141.906 643.767 146.712 642.221 151.463 641.445 157.18 641.445 163.864 641.445 170.493 642.221 176.21 643.767 181.015 645.312 185.821 647.553 189.523 650.481 192.119 653.409 194.715 656.915 196.013 661.004 196.013Z" fill="#5E60CE" transform="matrix(1.00255 0 0 1 234 152)"/><g clip-path="url(#clip1)"><path d="M64.2915 75.4425C82.5248 98.5898 92.2577 127.134 91.9048 156.424L91.9048 163.416 97.9207 167.076C105.693 171.781 111.49 179.079 114.255 187.64 111.827 185.853 109.288 184.218 106.651 182.746L90.6098 173.739 87.7275 191.917C87.4778 193.524 87.143 195.116 86.7248 196.688L41.7747 196.688C41.1063 194.632 40.5633 192.575 40.0619 190.437L36.4275 173.986 21.6391 182.211C19.1685 183.592 16.7831 185.117 14.4955 186.776 17.314 178.314 22.9898 171.058 30.579 166.212L36.3022 162.552 36.3022 156.054C36.4054 126.883 46.2557 98.5553 64.3335 75.4425L64.2915 75.4425ZM64.3335 58.3333C63.3961 58.3357 62.4907 58.6717 61.7849 59.2795L61.4093 59.6085C37.3197 86.1327 23.9431 120.431 23.8114 156.013 13.589 162.542 6.02222 172.4 2.43332 183.865-1.15559 195.329-0.538381 207.671 4.17709 218.733 9.14457 207.932 17.4486 198.951 27.9054 193.069 28.9541 197.541 30.3507 201.927 32.0829 206.189 32.3026 207.008 32.7895 207.733 33.4688 208.254 34.1481 208.774 34.9822 209.06 35.8427 209.068L93.8268 209.068C94.9964 209.068 96.166 207.957 96.7511 206.23 98.4416 202.179 99.6199 197.938 100.26 193.604 110.737 199.46 119.048 208.45 123.988 219.267 128.988 208.26 129.763 195.841 126.167 184.314 122.572 172.787 114.851 162.936 104.438 156.588 104.851 120.798 91.5448 86.1688 67.1743 59.6085 66.8109 59.2089 66.367 58.8887 65.8706 58.6693 65.3736 58.4494 64.8358 58.3351 64.2915 58.3333L64.3335 58.3333Z" fill="#4EA8DE" transform="matrix(1.00255 0 0 1 234 152)"/><path d="M64.2909 152.599C61.0826 152.599 57.9455 151.664 55.2759 149.911 52.6063 148.159 50.5234 145.667 49.2899 142.751 48.0563 139.834 47.7272 136.624 48.3442 133.524 48.9612 130.424 50.4964 127.573 52.7566 125.331 55.0167 123.089 57.9006 121.555 61.0447 120.924 64.1888 120.293 67.452 120.592 70.4235 121.784 73.395 122.976 75.9418 125.007 77.742 127.622 79.5427 130.237 80.5169 133.318 80.5414 136.477 80.5916 138.524 80.2311 140.561 79.4815 142.47 78.7319 144.381 77.6067 146.127 76.1717 147.608 74.7361 149.09 73.0182 150.279 71.1159 151.107 69.2137 151.936 67.1644 152.387 65.0848 152.434 64.8218 152.476 64.554 152.476 64.2909 152.434L64.2909 152.599Z" fill="#4EA8DE" transform="matrix(1.00255 0 0 1 234 152)"/><path d="M86.8916 219.309C85.8463 219.276 84.805 219.449 83.8285 219.818 82.852 220.186 81.9601 220.743 81.2053 221.455 80.4504 222.168 79.8473 223.022 79.4319 223.967 79.0172 224.912 78.7978 225.929 78.7868 226.959L78.7868 251.224C78.7868 253.34 79.6408 255.369 81.1609 256.866 82.6805 258.362 84.742 259.203 86.8916 259.203 89.0406 259.203 91.1021 258.362 92.6223 256.866 94.1418 255.369 94.9958 253.34 94.9958 251.224L94.9958 227.288C95.0291 226.262 94.8547 225.24 94.4831 224.281 94.1109 223.323 93.5492 222.447 92.8299 221.704 92.1107 220.961 91.2479 220.367 90.293 219.956 89.3381 219.545 88.3097 219.325 87.2673 219.309L86.8916 219.309Z" fill="#5E60CE" transform="matrix(1.00255 0 0 1 234 152)"/><path d="M41.7743 219.309C40.7112 219.253 39.6477 219.409 38.6471 219.767 37.6464 220.124 36.7291 220.676 35.9496 221.39 35.17 222.104 34.5443 222.965 34.1096 223.921 33.6749 224.878 33.4401 225.91 33.4192 226.959L33.4192 251.224C33.4192 253.34 34.2731 255.37 35.7929 256.866 37.3128 258.362 39.3742 259.203 41.5236 259.203 43.673 259.203 45.7344 258.362 47.2543 256.866 48.7741 255.37 49.628 253.34 49.628 251.224L49.628 227.288C49.6613 226.262 49.487 225.24 49.1152 224.281 48.7433 223.323 48.1813 222.447 47.462 221.704 46.7426 220.961 45.8803 220.367 44.9254 219.956 43.9703 219.545 42.9417 219.325 41.8996 219.309L41.7743 219.309Z" fill="#5E60CE" transform="matrix(1.00255 0 0 1 234 152)"/><path d="M63.7064 219.309C62.664 219.287 61.6274 219.468 60.6556 219.84 59.6843 220.212 58.7971 220.77 58.0442 221.481 57.2916 222.191 56.6886 223.04 56.2695 223.98 55.8504 224.92 55.6235 225.932 55.6018 226.959L55.6018 260.395C55.6018 262.512 56.4556 264.541 57.9755 266.037 59.4953 267.534 61.5568 268.374 63.7064 268.374 65.8554 268.374 67.9169 267.534 69.4371 266.037 70.9567 264.541 71.8107 262.512 71.8107 260.395L71.8107 227.493C71.8439 226.468 71.6695 225.446 71.2979 224.487 70.9258 223.528 70.364 222.652 69.6448 221.909 68.9255 221.167 68.0628 220.572 67.1078 220.161 66.1529 219.75 65.1245 219.53 64.0821 219.514L63.7064 219.309Z" fill="#5E60CE" transform="matrix(1.00255 0 0 1 234 152)"/></g></g></svg>